<?xml version="1.0" standalone="no"?><!DOCTYPE svg PUBLIC "-//W3C//DTD SVG 1.1//EN" "http://www.w3.org/Graphics/SVG/1.1/DTD/svg11.dtd"><svg t="1499678342092" class="icon" style="" viewBox="0 0 1024 1024" version="1.1" xmlns="http://www.w3.org/2000/svg" p-id="5585" xmlns:xlink="http://www.w3.org/1999/xlink" width="64" height="64"><defs><style type="text/css"></style></defs><path d="M891.723294 933.647059H365.688471a98.484706 98.484706 0 0 1-98.424471-98.424471V474.895059c0-54.272 44.152471-98.424471 98.424471-98.424471h525.974588c54.211765 0 98.424471 44.152471 98.42447 98.424471v360.327529a98.424471 98.424471 0 0 1-98.364235 98.424471zM365.688471 436.705882a38.189176 38.189176 0 0 0-38.189177 38.189177v360.327529c0 21.082353 17.106824 38.189176 38.189177 38.189177h525.974588c21.082353 0 38.189176-17.106824 38.189176-38.189177V474.895059a38.189176 38.189176 0 0 0-38.189176-38.189177H365.688471z" p-id="5586" fill="#2881a2"></path><path d="M304.971294 677.647059h-131.312941c-54.211765 0-98.364235-44.092235-98.364235-98.424471V218.895059C75.294118 164.623059 119.446588 120.470588 173.658353 120.470588h526.034823c54.272 0 98.424471 44.152471 98.424471 98.424471v199.017412h-60.235294V218.895059A38.189176 38.189176 0 0 0 699.693176 180.705882H173.658353a38.189176 38.189176 0 0 0-38.128941 38.189177v360.327529c0 21.082353 17.106824 38.189176 38.128941 38.189177h131.312941v60.235294z" p-id="5587" fill="#2881a2"></path></svg>