<?xml version="1.0" standalone="no"?><!DOCTYPE svg PUBLIC "-//W3C//DTD SVG 1.1//EN" "http://www.w3.org/Graphics/SVG/1.1/DTD/svg11.dtd"><svg t="1499674480393" class="icon" style="" viewBox="0 0 1024 1024" version="1.1" xmlns="http://www.w3.org/2000/svg" p-id="8477" xmlns:xlink="http://www.w3.org/1999/xlink" width="64" height="64"><defs><style type="text/css"></style></defs><path d="M964.608 73.216c-10.752-10.752-28.672-10.752-39.424 0l-93.696 93.696-92.16-92.16c-10.752-10.752-28.672-10.752-39.424 0-10.752 10.752-10.752 28.672 0 39.424l92.16 92.16L568.832 430.08c-54.784-52.224-129.024-83.968-210.944-83.968C188.416 345.6 51.2 482.816 51.2 652.288s137.216 306.688 306.688 306.688 306.688-137.216 306.688-306.688c0-67.584-22.016-130.048-58.88-180.224L964.608 112.64c10.752-10.752 10.752-28.16 0-39.424z m-355.84 579.072c0 138.24-112.128 250.88-250.88 250.88-138.24 0-250.88-112.128-250.88-250.88s112.128-250.88 250.88-250.88c138.24 0 250.88 112.64 250.88 250.88z" p-id="8478" fill="#2881a2"></path></svg>