<?xml version="1.0" standalone="no"?><!DOCTYPE svg PUBLIC "-//W3C//DTD SVG 1.1//EN" "http://www.w3.org/Graphics/SVG/1.1/DTD/svg11.dtd"><svg t="1499738825306" class="icon" style="" viewBox="0 0 1024 1024" version="1.1" xmlns="http://www.w3.org/2000/svg" p-id="4070" xmlns:xlink="http://www.w3.org/1999/xlink" width="64" height="64"><defs><style type="text/css"></style></defs><path d="M512 986.763636c-260.654545 0-474.763636-214.109091-474.763636-474.763636s214.109091-474.763636 474.763636-474.763636v55.854545c-228.072727 0-418.909091 186.181818-418.909091 418.909091 0 228.072727 186.181818 418.909091 418.909091 418.909091 228.072727 0 418.909091-186.181818 418.909091-418.909091 0-111.709091-41.890909-218.763636-121.018182-293.236364l41.890909-41.890909c88.436364 88.436364 139.636364 209.454545 139.636364 335.127273-4.654545 260.654545-218.763636 474.763636-479.418182 474.763636z" p-id="4071" fill="#2881a2"></path><path d="M512 986.763636V930.909091c125.672727 0 232.727273-190.836364 232.727273-418.909091s-107.054545-418.909091-232.727273-418.909091-232.727273 190.836364-232.727273 418.909091c0 74.472727 9.309091 148.945455 32.581818 214.109091 13.963636 41.890909 32.581818 74.472727 51.2 107.054545l-46.545454 32.581819c-23.272727-32.581818-41.890909-74.472727-55.854546-121.018182-23.272727-69.818182-37.236364-153.6-37.236363-232.727273 0-265.309091 125.672727-474.763636 288.581818-474.763636s288.581818 209.454545 288.581818 474.763636c0 265.309091-125.672727 474.763636-288.581818 474.763636z" p-id="4072" fill="#2881a2"></path><path d="M65.163636 484.072727h893.672728v55.854546h-893.672728z" p-id="4073" fill="#2881a2"></path><path d="M488.727273 65.163636h46.545454v893.672728h-46.545454z" p-id="4074" fill="#2881a2"></path></svg>