<?xml version="1.0" standalone="no"?><!DOCTYPE svg PUBLIC "-//W3C//DTD SVG 1.1//EN" "http://www.w3.org/Graphics/SVG/1.1/DTD/svg11.dtd"><svg t="1499915988273" class="icon" style="" viewBox="0 0 1067 1024" version="1.1" xmlns="http://www.w3.org/2000/svg" p-id="2502" xmlns:xlink="http://www.w3.org/1999/xlink" width="66.6875" height="64"><defs><style type="text/css"></style></defs><path d="M1019.042 827.042c-24.338-89.239-86.535-159.549-164.958-192 18.93-8.113 35.155-18.93 48.676-32.451 48.676-40.564 75.718-102.761 75.718-164.958 0-121.69-100.057-221.747-221.747-221.747-18.93 0-37.859 2.705-54.084 5.408-10.817 2.705-18.93 13.522-16.225 27.042 2.705 10.817 13.522 18.93 27.042 16.225 13.522-2.705 29.747-5.408 43.267-5.408 97.353 0 178.478 81.127 178.478 178.478 0 51.381-21.634 100.057-59.493 132.507-32.451 29.747-75.718 45.972-118.986 45.972-40.564 0-78.423-13.522-108.169-37.859-10.817-8.113-24.338-5.408-29.747 2.705s-5.408 24.338 2.705 29.747c37.859 29.747 86.535 45.972 135.211 45.972 100.057 0 192 73.014 219.042 178.478 2.705 10.817 10.817 16.225 21.634 16.225h5.408c10.817 0 18.93-13.522 16.225-24.338z" fill="#2881a2" p-id="2503"></path><path d="M813.522 954.141c-37.859-140.619-140.619-246.084-265.014-289.353 35.155-13.522 67.606-35.155 97.353-59.493 67.606-62.197 108.169-148.732 108.169-240.676 0-178.478-146.028-324.507-324.507-324.507s-324.507 146.028-324.507 324.507c0 135.211 83.831 251.493 202.817 300.169-121.69 43.267-221.747 151.436-262.31 289.353-2.705 10.817 2.705 24.338 16.225 27.042 10.817 2.705 24.338-2.705 27.042-16.225 45.972-164.958 186.592-278.535 343.436-278.535 156.845 0 297.465 113.577 343.436 278.535 2.705 10.817 10.817 16.225 21.634 16.225h5.408c8.113-2.705 13.522-13.522 10.817-27.042zM150.986 364.619c0-154.141 124.394-278.535 278.535-278.535s281.241 124.394 281.241 281.241c0 78.423-35.155 156.845-91.943 208.225-51.381 45.972-118.986 70.31-186.592 70.31-156.845 0-281.241-127.099-281.241-281.241z" fill="#2881a2" p-id="2504"></path></svg>