<?xml version="1.0" standalone="no"?><!DOCTYPE svg PUBLIC "-//W3C//DTD SVG 1.1//EN" "http://www.w3.org/Graphics/SVG/1.1/DTD/svg11.dtd"><svg t="1499674783048" class="icon" style="" viewBox="0 0 1024 1024" version="1.1" xmlns="http://www.w3.org/2000/svg" p-id="9374" xmlns:xlink="http://www.w3.org/1999/xlink" width="64" height="64"><defs><style type="text/css"></style></defs><path d="M510.976 570.368c-143.872 0-260.608-116.736-260.608-260.608s116.736-260.608 260.608-260.608c143.872 0 260.608 116.736 260.608 260.608s-117.248 260.608-260.608 260.608z m0-459.776c-109.568 0-199.168 89.088-199.168 199.168s89.088 199.168 199.168 199.168 199.168-89.088 199.168-199.168-89.6-199.168-199.168-199.168z" fill="#2881a2" p-id="9375"></path><path d="M913.408 976.384c-16.896 0-30.72-13.824-30.72-30.72 0-204.8-166.912-371.712-371.712-371.712s-371.712 166.912-371.712 371.712c0 16.896-13.824 30.72-30.72 30.72s-30.72-13.824-30.72-30.72c0-239.104 194.56-433.152 433.152-433.152 239.104 0 433.152 194.56 433.152 433.152 0 16.896-13.824 30.72-30.72 30.72z" fill="#2881a2" p-id="9376"></path></svg>