<?xml version="1.0" standalone="no"?><!DOCTYPE svg PUBLIC "-//W3C//DTD SVG 1.1//EN" "http://www.w3.org/Graphics/SVG/1.1/DTD/svg11.dtd"><svg t="1499762726566" class="icon" style="" viewBox="0 0 1024 1024" version="1.1" xmlns="http://www.w3.org/2000/svg" p-id="3950" xmlns:xlink="http://www.w3.org/1999/xlink" width="64" height="64"><defs><style type="text/css"></style></defs><path d="M502.202182 50.424242c129.899313 0 235.201939 103.567515 235.201939 231.345131 0 127.762101-105.302626 231.361939-235.201939 231.361939-129.896727 0-235.200646-103.599838-235.200646-231.361939C266.984727 153.991758 372.305455 50.424242 502.202182 50.424242L502.202182 50.424242z" p-id="3951"></path><path d="M502.202182 50.424242c129.899313 0 235.201939 103.567515 235.201939 231.345131 0 127.762101-105.302626 231.361939-235.201939 231.361939-129.896727 0-235.200646-103.599838-235.200646-231.361939C266.984727 153.991758 372.305455 50.424242 502.202182 50.424242L502.202182 50.424242z" p-id="3952"></path><path d="M413.993374 590.268768l196.030061 0c167.795071 0 303.815111 133.787152 303.815111 298.834747l0 19.263354c0 65.039515-136.038141 67.521939-303.815111 67.521939L413.993374 975.888808C246.198303 975.888808 110.161455 975.822869 110.161455 908.366869l0-19.263354C110.161455 724.055919 246.198303 590.268768 413.993374 590.268768L413.993374 590.268768z" p-id="3953"></path></svg>