<?xml version="1.0" standalone="no"?><!DOCTYPE svg PUBLIC "-//W3C//DTD SVG 1.1//EN" "http://www.w3.org/Graphics/SVG/1.1/DTD/svg11.dtd"><svg t="1499762858184" class="icon" style="" viewBox="0 0 1024 1024" version="1.1" xmlns="http://www.w3.org/2000/svg" p-id="6785" xmlns:xlink="http://www.w3.org/1999/xlink" width="64" height="64"><defs><style type="text/css"></style></defs><path d="M944.576 329.344c-23.509333-55.872-57.344-106.112-100.544-149.290667-43.114667-43.008-93.312-76.821333-149.248-100.565333-58.048-24.426667-119.530667-36.821333-182.762667-36.821333-63.488 0-124.949333 12.394667-182.741333 36.821333-55.872 23.573333-106.090667 57.386667-149.248 100.565333-43.050667 43.029333-76.885333 93.205333-100.650667 149.162667-24.448 58.005333-36.864 119.509333-36.864 182.741333 0 63.488 12.394667 124.949333 36.864 182.72 23.530667 55.872 57.344 106.112 100.544 149.269333 43.114667 43.008 93.333333 76.821333 149.248 100.565333 58.048 24.426667 119.530667 36.821333 182.762667 36.821333 76.757333 0 152.853333-18.922667 220.629333-55.04 2.346667-1.322667 58.261333-32.533333 111.466667-40.704 12.053333-1.877333 20.330667-13.184 18.474667-25.194667-1.813333-11.797333-13.162667-20.437333-25.194667-18.496-61.930667 9.514667-123.861333 44.501333-126.357333 45.909333-60.906667 32.213333-129.685333 49.237333-198.890667 49.237333-57.514667 0-113.216-11.2-165.525333-33.344-50.538667-21.312-96-51.989333-135.104-91.114667-39.018667-39.018667-69.674667-84.458667-91.114667-135.125333-22.165333-52.416-33.365333-108.074667-33.365333-165.504 0-57.493333 11.221333-113.194667 33.365333-165.546667 21.376-50.602667 52.032-96.042667 91.114667-135.104 38.976-39.018667 84.437333-69.674667 135.104-91.093333 52.032-22.016 107.242667-33.194667 164.032-33.194667l1.557333 0c57.450667 0 113.130667 11.221333 165.525333 33.365333 50.56 21.354667 96 52.010667 135.125333 91.093333 39.018667 39.04 69.674667 84.501333 91.114667 135.146667 22.144 52.437333 33.365333 108.096 33.365333 165.504 0 47.488-7.829333 94.208-23.253333 138.901333-14.912 43.093333-36.608 83.349333-64.469333 119.594667-7.424 9.664-5.589333 23.616 4.096 31.061333 9.365333 7.232 23.786667 5.269333 31.018667-4.117333 30.869333-40.192 54.805333-84.650667 71.146667-132.138667 17.024-49.237333 25.642667-100.821333 25.642667-153.386667C981.461333 448.597333 969.045333 387.114667 944.576 329.344z" p-id="6786"></path><path d="M533.333333 512c0 11.797333-9.557333 21.333333-21.333333 21.333333l0 0c-11.776 0-21.333333-9.536-21.333333-21.333333l0-320c0-11.797333 9.557333-21.333333 21.333333-21.333333l0 0c11.776 0 21.333333 9.536 21.333333 21.333333L533.333333 512z" p-id="6787"></path><path d="M693.013333 662.848c8.341333 8.362667 8.341333 21.824 0 30.186667l0 0c-8.32 8.32-21.824 8.341333-30.165333 0l-165.930667-165.930667c-8.341333-8.362667-8.341333-21.824 0-30.186667l0 0c8.341333-8.341333 21.824-8.341333 30.165333 0L693.013333 662.848z" p-id="6788"></path></svg>