<?xml version="1.0" standalone="no"?><!DOCTYPE svg PUBLIC "-//W3C//DTD SVG 1.1//EN" "http://www.w3.org/Graphics/SVG/1.1/DTD/svg11.dtd"><svg t="1499762800259" class="icon" style="" viewBox="0 0 1024 1024" version="1.1" xmlns="http://www.w3.org/2000/svg" p-id="5306" xmlns:xlink="http://www.w3.org/1999/xlink" width="64" height="64"><defs><style type="text/css"></style></defs><path d="M1024.508-150.803h-1024.999c-83.012 0-150.313 67.122-150.313 149.908v1025.807c0 82.786 67.3 149.908 150.313 149.908h1024.999c83.012 0 150.313-67.122 150.313-149.908v-1025.809c-0.017-82.786-67.3-149.908-150.313-149.908zM1064.589 1024.895c0 22.039-17.979 39.969-40.082 39.969h-1024.999c-22.103 0-40.083-17.93-40.083-39.969v-1025.809c0-22.039 17.979-39.969 40.083-39.969h1025.001c22.103 0 40.082 17.93 40.082 26.164v1039.613z" p-id="5307"></path><path d="M316.029 532.497h-160.124c-60.59 0-109.939-49.35-109.939-109.939v-160.245c0-60.695 49.35-110.062 109.939-110.062h160.124c60.695 0 110.062 49.35 110.062 110.062v160.243c0 60.59-49.364 109.94-110.062 109.94v0zM316.029 976.774h-160.124c-60.59 0-109.939-49.228-109.939-110.183v-160.108c0-60.59 49.35-109.939 109.939-109.939h160.124c60.695 0 110.062 49.35 110.062 109.939v160.124c0 60.939-49.364 110.167-110.062 110.167v0zM762.827 976.774h-160.124c-60.697 0-109.939-49.228-109.939-110.183v-160.108c0-60.59 49.35-109.939 109.939-109.939h160.245c60.697 0 110.062 49.35 110.062 109.939v160.124c-0.015 60.939-49.364 110.167-110.183 110.167v0zM841.577 532.497h-212.583c-75.046 0-136.229-61.183-136.229-136.459v-212.583c0-75.169 61.183-136.229 136.229-136.229h212.703c75.169 0 136.351 61.061 136.351 136.229v212.583c-0.015 75.276-61.198 136.459-136.473 136.459v0z" p-id="5308"></path></svg>