<?xml version="1.0" standalone="no"?><!DOCTYPE svg PUBLIC "-//W3C//DTD SVG 1.1//EN" "http://www.w3.org/Graphics/SVG/1.1/DTD/svg11.dtd"><svg t="1494384843457" class="icon" style="" viewBox="0 0 1024 1024" version="1.1" xmlns="http://www.w3.org/2000/svg" p-id="4378" xmlns:xlink="http://www.w3.org/1999/xlink" width="64" height="64"><defs><style type="text/css"></style></defs><path d="M704.352401 899.565966c-47.032176-0.140193-94.081749-0.020466-141.111878-0.079818-6.66991-0.020466-13.33675-0.591471-20.992103-0.947582 0-29.827329 0.86981-57.485249-0.354064-85.064374-0.651846-14.560624 5.877871-17.893532 18.503423-19.472494 145.729036-18.228153 265.694291-155.276483 263.641539-300.708759-0.276293-20.279882-12.349259-34.148751-29.90817-34.365692-16.708544-0.216941-29.531594 12.723789-31.346939 31.702026-1.143033 11.856026-1.499144 23.831778-3.411703 35.5691C740.965274 639.692241 656.452461 721.79926 538.795784 735.76739 432.049598 748.430804 330.255191 690.2538 284.329209 593.095993c-15.960507-33.735335-20.655436-69.461001-24.363897-105.820094-1.89414-18.642592-15.604396-29.394471-31.702026-28.191062-16.610306 1.243317-28.408003 13.651928-28.329209 32.03767 0.059352 15.051811 1.222851 30.223349 3.491521 45.097104C224.81065 676.03189 340.256986 778.872117 467.165374 795.066961c4.971222 0.651846 12.625552 8.622378 12.82305 13.414521 1.182942 29.434379 0.591471 58.965973 0.591471 91.044576-55.927777 0-109.213377-0.157589-162.516374 0.058328-22.410406 0.100284-36.220946 12.015661-36.160571 30.303166 0.038886 18.268062 13.82896 30.201859 36.259832 30.221302 129.038912 0.138146 258.096243 0.11768 387.135154 0.020466 22.313192-0.020466 36.259832-11.738345 36.595476-29.807886C742.228033 911.658376 727.807602 899.624295 704.352401 899.565966zM645.917524 106.551758c-54.428633-55.355749-190.095499-52.67264-241.426585-16.433274-46.261627 32.649608-72.164576 75.360362-73.565483 133.576251L698.256566 223.694735C696.203814 176.348404 677.956218 139.122571 645.917524 106.551758zM414.946059 672.854525c36.536125 20.675902 76.562746 19.788695 116.631324 19.335371 93.173053-1.065262 160.109558-64.667835 165.335582-158.631904l-367.111099 0C332.68145 596.627423 361.010659 642.317021 414.946059 672.854525zM695.847703 258.296811 331.439156 258.296811l0 58.374502 364.408547 0L695.847703 258.296811zM697.013249 348.393805 332.997652 348.393805l0 58.551534 364.015597 0L697.013249 348.393805zM693.185061 499.03471l0-59.735499L379.534548 439.299211c-56.814983 0-56.814983 0-49.812499 59.735499L693.185061 499.03471z" p-id="4379" fill="#2881a2"></path></svg>